<svg width="51" height="50" viewBox="0 0 51 50" fill="none" xmlns="http://www.w3.org/2000/svg">
<rect x="0.325439" width="11.1607" height="11.1607" rx="5.58036" fill="#AAAAAA"/>
<rect x="0.325439" y="12.9464" width="11.1607" height="11.1607" rx="5.58036" fill="#AAAAAA"/>
<rect x="0.325439" y="25.8928" width="11.1607" height="11.1607" rx="5.58036" fill="#AAAAAA"/>
<rect x="0.325439" y="38.8392" width="11.1607" height="11.1607" rx="5.58036" fill="#AAAAAA"/>
<rect x="13.2719" width="11.1607" height="11.1607" rx="5.58036" fill="#AAAAAA"/>
<rect x="13.2719" y="12.9464" width="11.1607" height="11.1607" rx="5.58036" fill="#AAAAAA"/>
<rect x="13.2719" y="25.8928" width="11.1607" height="11.1607" rx="5.58036" fill="#AAAAAA"/>
<rect x="13.2719" y="38.8392" width="11.1607" height="11.1607" rx="5.58036" fill="#AAAAAA"/>
<rect x="26.2183" width="11.1607" height="11.1607" rx="5.58036" fill="#AAAAAA"/>
<rect x="39.1647" width="11.1607" height="11.1607" rx="5.58036" fill="#AAAAAA"/>
<rect x="26.2183" y="12.9464" width="11.1607" height="11.1607" rx="5.58036" fill="#AAAAAA"/>
<rect x="39.1647" y="12.9464" width="11.1607" height="11.1607" rx="5.58036" fill="#AAAAAA"/>
<rect x="26.2183" y="25.8928" width="11.1607" height="11.1607" rx="5.58036" fill="#AAAAAA"/>
<rect x="26.2183" y="38.8392" width="11.1607" height="11.1607" rx="5.58036" fill="#AAAAAA"/>
<rect x="39.1647" y="25.8928" width="11.1607" height="11.1607" rx="5.58036" fill="#AAAAAA"/>
<rect x="39.1647" y="38.8392" width="11.1607" height="11.1607" rx="5.58036" fill="#AAAAAA"/>
</svg>
