<svg width="51" height="50" viewBox="0 0 51 50" fill="none" xmlns="http://www.w3.org/2000/svg">
<rect x="0.309631" width="8.86222" height="8.86222" rx="4.43111" fill="#AAAAAA"/>
<rect x="0.309631" y="10.2802" width="8.86222" height="8.86222" rx="4.43111" fill="#AAAAAA"/>
<rect x="0.309631" y="20.5603" width="8.86222" height="8.86222" rx="4.43111" fill="#AAAAAA"/>
<rect x="0.309631" y="30.8406" width="8.86222" height="8.86222" rx="4.43111" fill="#AAAAAA"/>
<rect x="0.309631" y="41.1378" width="8.86222" height="8.86222" rx="4.43111" fill="#AAAAAA"/>
<rect x="10.5898" width="8.86222" height="8.86222" rx="4.43111" fill="#AAAAAA"/>
<rect x="10.5898" y="10.2802" width="8.86222" height="8.86222" rx="4.43111" fill="#AAAAAA"/>
<rect x="10.5898" y="20.5603" width="8.86222" height="8.86222" rx="4.43111" fill="#AAAAAA"/>
<rect x="10.5898" y="30.8406" width="8.86222" height="8.86222" rx="4.43111" fill="#AAAAAA"/>
<rect x="10.5898" y="41.1378" width="8.86222" height="8.86222" rx="4.43111" fill="#AAAAAA"/>
<rect x="20.87" width="8.86222" height="8.86222" rx="4.43111" fill="#AAAAAA"/>
<rect x="31.1501" width="8.86222" height="8.86222" rx="4.43111" fill="#AAAAAA"/>
<rect x="41.4474" width="8.86222" height="8.86222" rx="4.43111" fill="#AAAAAA"/>
<rect x="20.87" y="10.2802" width="8.86222" height="8.86222" rx="4.43111" fill="#AAAAAA"/>
<rect x="31.1501" y="10.2802" width="8.86222" height="8.86222" rx="4.43111" fill="#AAAAAA"/>
<rect x="41.4474" y="10.2802" width="8.86222" height="8.86222" rx="4.43111" fill="#AAAAAA"/>
<rect x="20.87" y="20.5603" width="8.86222" height="8.86222" rx="4.43111" fill="#AAAAAA"/>
<rect x="20.87" y="30.8406" width="8.86222" height="8.86222" rx="4.43111" fill="#AAAAAA"/>
<rect x="20.87" y="41.1378" width="8.86222" height="8.86222" rx="4.43111" fill="#AAAAAA"/>
<rect x="31.1501" y="20.5603" width="8.86222" height="8.86222" rx="4.43111" fill="#AAAAAA"/>
<rect x="41.4474" y="20.5603" width="8.86222" height="8.86222" rx="4.43111" fill="#AAAAAA"/>
<rect x="31.1501" y="30.8406" width="8.86222" height="8.86222" rx="4.43111" fill="#AAAAAA"/>
<rect x="31.1501" y="41.1378" width="8.86222" height="8.86222" rx="4.43111" fill="#AAAAAA"/>
<rect x="41.4474" y="30.8406" width="8.86222" height="8.86222" rx="4.43111" fill="#AAAAAA"/>
<rect x="41.4474" y="41.1378" width="8.86222" height="8.86222" rx="4.43111" fill="#AAAAAA"/>
</svg>
