<svg width="18" height="17" viewBox="0 0 18 17" fill="none" xmlns="http://www.w3.org/2000/svg">
<path d="M8.89337 0.648895C7.81069 0.648895 6.73862 0.862145 5.73835 1.27647C4.73809 1.69079 3.82922 2.29807 3.06365 3.06364C1.51751 4.60978 0.648903 6.7068 0.648903 8.89336C0.648903 12.5374 3.01507 15.6291 6.28812 16.7256C6.70034 16.7916 6.83226 16.536 6.83226 16.3134V14.9201C4.54854 15.4147 4.06211 13.8153 4.06211 13.8153C3.68287 12.859 3.14698 12.6034 3.14698 12.6034C2.39673 12.0922 3.20469 12.1087 3.20469 12.1087C4.02914 12.1664 4.46609 12.9579 4.46609 12.9579C5.18336 14.211 6.3953 13.84 6.86523 13.6422C6.93943 13.1063 7.15379 12.7435 7.38463 12.5374C5.55436 12.3313 3.6334 11.6223 3.6334 8.48114C3.6334 7.566 3.94669 6.83225 4.48258 6.24689C4.40014 6.04078 4.11158 5.18335 4.56503 4.07035C4.56503 4.07035 5.25756 3.84775 6.83226 4.91129C7.48357 4.72991 8.19259 4.63922 8.89337 4.63922C9.59415 4.63922 10.3032 4.72991 10.9545 4.91129C12.5292 3.84775 13.2217 4.07035 13.2217 4.07035C13.6752 5.18335 13.3866 6.04078 13.3042 6.24689C13.8401 6.83225 14.1533 7.566 14.1533 8.48114C14.1533 11.6305 12.2241 12.3231 10.3856 12.5292C10.6824 12.7848 10.9545 13.2877 10.9545 14.0544V16.3134C10.9545 16.536 11.0864 16.7998 11.5069 16.7256C14.7799 15.6209 17.1378 12.5374 17.1378 8.89336C17.1378 7.81069 16.9246 6.73861 16.5103 5.73834C16.0959 4.73808 15.4887 3.82921 14.7231 3.06364C13.9575 2.29807 13.0487 1.69079 12.0484 1.27647C11.0481 0.862145 9.97605 0.648895 8.89337 0.648895Z" fill="#9D9D9D"/>
</svg>
