<svg width="371" height="397" viewBox="0 0 371 397" fill="none" xmlns="http://www.w3.org/2000/svg">
<rect x="68" y="23.3382" width="33.0051" height="132.485" rx="16.5026" transform="rotate(-45 68 23.3382)" fill="url(#paint0_linear)"/>
<rect x="91.3382" y="117.02" width="33.0051" height="132.485" rx="16.5026" transform="rotate(-135 91.3382 117.02)" fill="url(#paint1_linear)"/>
<rect x="185.145" y="141.193" width="33.0051" height="132.485" rx="16.5026" transform="rotate(-45 185.145 141.193)" fill="url(#paint2_linear)"/>
<rect x="208.483" y="234.875" width="33.0051" height="132.485" rx="16.5026" transform="rotate(-135 208.483 234.875)" fill="url(#paint3_linear)"/>
<path fill-rule="evenodd" clip-rule="evenodd" d="M243.645 118C275.954 118 302.145 91.5848 302.145 59C302.145 26.4152 275.954 7.62939e-06 243.645 7.62939e-06C211.336 7.62939e-06 185.145 26.4152 185.145 59C185.145 91.5848 211.336 118 243.645 118ZM243.645 86.9704C258.962 86.9704 271.378 74.4476 271.378 59C271.378 43.5524 258.962 31.0296 243.645 31.0296C228.328 31.0296 215.912 43.5524 215.912 59C215.912 74.4476 228.328 86.9704 243.645 86.9704Z" fill="url(#paint4_linear)"/>
<path fill-rule="evenodd" clip-rule="evenodd" d="M126.645 235C158.954 235 185.145 208.809 185.145 176.5C185.145 144.191 158.954 118 126.645 118C94.3364 118 68.145 144.191 68.145 176.5C68.145 208.809 94.3364 235 126.645 235ZM126.645 204.233C141.962 204.233 154.378 191.817 154.378 176.5C154.378 161.183 141.962 148.767 126.645 148.767C111.328 148.767 98.9117 161.183 98.9117 176.5C98.9117 191.817 111.328 204.233 126.645 204.233Z" fill="url(#paint5_linear)"/>
<path d="M49.877 256.88C51.221 256.88 52.277 257.312 53.045 258.176C53.861 258.992 54.269 260.096 54.269 261.488V303.752C54.269 305.144 53.861 306.272 53.045 307.136C52.229 308 51.173 308.432 49.877 308.432C48.341 308.432 47.165 307.88 46.349 306.776L20.069 272.576V303.752C20.069 305.144 19.685 306.272 18.917 307.136C18.149 308 17.093 308.432 15.749 308.432C14.405 308.432 13.349 308 12.581 307.136C11.813 306.272 11.429 305.144 11.429 303.752V261.488C11.429 260.096 11.837 258.992 12.653 258.176C13.469 257.312 14.549 256.88 15.893 256.88C17.381 256.88 18.533 257.432 19.349 258.536L45.557 292.592V261.488C45.557 260.096 45.941 258.992 46.709 258.176C47.525 257.312 48.581 256.88 49.877 256.88ZM87.8261 308.648C82.8821 308.648 78.5861 307.592 74.9381 305.48C71.3381 303.368 68.5541 300.344 66.5861 296.408C64.6181 292.472 63.6341 287.864 63.6341 282.584C63.6341 277.304 64.5941 272.72 66.5141 268.832C68.4821 264.896 71.2901 261.872 74.9381 259.76C78.5861 257.648 82.8821 256.592 87.8261 256.592C92.7701 256.592 97.0421 257.648 100.642 259.76C104.29 261.872 107.074 264.896 108.994 268.832C110.962 272.72 111.946 277.304 111.946 282.584C111.946 287.864 110.962 292.472 108.994 296.408C107.026 300.344 104.218 303.368 100.57 305.48C96.9701 307.592 92.7221 308.648 87.8261 308.648ZM87.8261 301.232C92.4821 301.232 96.1061 299.624 98.6981 296.408C101.338 293.192 102.658 288.584 102.658 282.584C102.658 276.584 101.338 272 98.6981 268.832C96.1061 265.616 92.4821 264.008 87.8261 264.008C83.1221 264.008 79.4501 265.616 76.8101 268.832C74.2181 272 72.9221 276.584 72.9221 282.584C72.9221 288.584 74.2181 293.192 76.8101 296.408C79.4501 299.624 83.1221 301.232 87.8261 301.232ZM142.279 308.648C135.319 308.648 130.039 306.848 126.439 303.248C122.839 299.648 121.039 294.392 121.039 287.48V261.488C121.039 260.096 121.447 258.992 122.263 258.176C123.079 257.312 124.183 256.88 125.575 256.88C126.967 256.88 128.071 257.312 128.887 258.176C129.703 258.992 130.111 260.096 130.111 261.488V287.984C130.111 292.352 131.143 295.664 133.207 297.92C135.271 300.128 138.295 301.232 142.279 301.232C146.215 301.232 149.215 300.104 151.279 297.848C153.343 295.592 154.375 292.304 154.375 287.984V261.488C154.375 260.096 154.783 258.992 155.599 258.176C156.415 257.312 157.519 256.88 158.911 256.88C160.303 256.88 161.407 257.312 162.223 258.176C163.039 258.992 163.447 260.096 163.447 261.488V287.48C163.447 294.344 161.647 299.6 158.047 303.248C154.447 306.848 149.191 308.648 142.279 308.648ZM212.796 280.568C213.9 280.568 214.788 280.904 215.46 281.576C216.132 282.2 216.468 283.04 216.468 284.096V299.576C216.468 301.784 216.18 303.344 215.604 304.256C215.028 305.168 213.852 305.912 212.076 306.488C210.156 307.16 207.924 307.688 205.38 308.072C202.836 308.456 200.388 308.648 198.036 308.648C192.804 308.648 188.268 307.616 184.428 305.552C180.588 303.488 177.636 300.512 175.572 296.624C173.556 292.688 172.548 288.008 172.548 282.584C172.548 277.256 173.556 272.648 175.572 268.76C177.636 264.824 180.54 261.824 184.284 259.76C188.028 257.648 192.444 256.592 197.532 256.592C204.3 256.592 209.844 258.416 214.164 262.064C214.74 262.592 215.148 263.12 215.388 263.648C215.676 264.176 215.82 264.8 215.82 265.52C215.82 266.576 215.532 267.464 214.956 268.184C214.38 268.904 213.684 269.264 212.868 269.264C212.34 269.264 211.86 269.192 211.428 269.048C210.996 268.856 210.492 268.568 209.916 268.184C207.804 266.696 205.836 265.664 204.012 265.088C202.188 264.464 200.124 264.152 197.82 264.152C192.588 264.152 188.628 265.712 185.94 268.832C183.3 271.904 181.98 276.488 181.98 282.584C181.98 295.064 187.452 301.304 198.396 301.304C201.66 301.304 204.924 300.848 208.188 299.936V287.192H200.052C198.9 287.192 197.988 286.904 197.316 286.328C196.692 285.752 196.38 284.936 196.38 283.88C196.38 282.824 196.692 282.008 197.316 281.432C197.988 280.856 198.9 280.568 200.052 280.568H212.796ZM266.609 256.88C268.001 256.88 269.105 257.312 269.921 258.176C270.737 258.992 271.145 260.096 271.145 261.488V303.752C271.145 305.144 270.713 306.272 269.849 307.136C269.033 308 267.953 308.432 266.609 308.432C265.217 308.432 264.113 308 263.297 307.136C262.481 306.272 262.073 305.144 262.073 303.752V285.968H236.081V303.752C236.081 305.144 235.649 306.272 234.785 307.136C233.969 308 232.865 308.432 231.473 308.432C230.129 308.432 229.025 308 228.161 307.136C227.345 306.272 226.937 305.144 226.937 303.752V261.488C226.937 260.096 227.345 258.992 228.161 258.176C228.977 257.312 230.081 256.88 231.473 256.88C232.865 256.88 233.969 257.312 234.785 258.176C235.649 258.992 236.081 260.096 236.081 261.488V278.48H262.073V261.488C262.073 260.096 262.481 258.992 263.297 258.176C264.113 257.312 265.217 256.88 266.609 256.88ZM298.694 308.36C297.254 308.36 296.102 307.952 295.238 307.136C294.422 306.272 294.014 305.144 294.014 303.752V264.872H280.91C278.03 264.872 276.59 263.6 276.59 261.056C276.59 258.512 278.03 257.24 280.91 257.24H316.406C319.286 257.24 320.726 258.512 320.726 261.056C320.726 263.6 319.286 264.872 316.406 264.872H303.302V303.752C303.302 305.144 302.87 306.272 302.006 307.136C301.19 307.952 300.086 308.36 298.694 308.36ZM342.169 308.648C338.473 308.648 334.969 308.168 331.657 307.208C328.393 306.2 325.729 304.856 323.665 303.176C322.561 302.36 322.009 301.208 322.009 299.72C322.009 298.712 322.297 297.848 322.873 297.128C323.497 296.36 324.217 295.976 325.033 295.976C325.897 295.976 326.881 296.312 327.985 296.984C330.049 298.472 332.209 299.552 334.465 300.224C336.721 300.896 339.217 301.232 341.953 301.232C345.457 301.232 348.145 300.632 350.017 299.432C351.889 298.184 352.825 296.384 352.825 294.032C352.825 292.208 351.937 290.816 350.161 289.856C348.433 288.848 345.529 287.888 341.449 286.976C337.225 286.064 333.793 285.008 331.153 283.808C328.513 282.608 326.521 281.072 325.177 279.2C323.833 277.328 323.161 274.952 323.161 272.072C323.161 269.096 324.001 266.432 325.681 264.08C327.361 261.728 329.689 259.904 332.665 258.608C335.689 257.264 339.073 256.592 342.817 256.592C349.681 256.592 355.273 258.416 359.593 262.064C360.217 262.592 360.649 263.12 360.889 263.648C361.177 264.128 361.321 264.752 361.321 265.52C361.321 266.528 361.009 267.416 360.385 268.184C359.809 268.904 359.113 269.264 358.297 269.264C357.817 269.264 357.361 269.192 356.929 269.048C356.545 268.904 356.017 268.64 355.345 268.256C353.377 266.816 351.457 265.76 349.585 265.088C347.761 264.368 345.505 264.008 342.817 264.008C339.553 264.008 336.961 264.68 335.041 266.024C333.169 267.32 332.233 269.144 332.233 271.496C332.233 273.464 333.073 274.976 334.753 276.032C336.433 277.088 339.289 278.072 343.321 278.984C347.593 279.944 351.049 281.024 353.689 282.224C356.377 283.376 358.417 284.864 359.809 286.688C361.249 288.512 361.969 290.792 361.969 293.528C361.969 296.504 361.129 299.144 359.449 301.448C357.817 303.704 355.489 305.48 352.465 306.776C349.489 308.024 346.057 308.648 342.169 308.648Z" fill="url(#paint6_linear)"/>
<path d="M46.6247 372.648C41.7287 372.648 37.4327 371.592 33.7367 369.48C30.0887 367.368 27.2807 364.344 25.3127 360.408C23.3447 356.472 22.3607 351.864 22.3607 346.584C22.3607 341.304 23.3447 336.72 25.3127 332.832C27.2807 328.896 30.0887 325.872 33.7367 323.76C37.4327 321.648 41.7287 320.592 46.6247 320.592C49.7927 320.592 52.7687 321.072 55.5527 322.032C58.3367 322.944 60.8087 324.288 62.9687 326.064C63.5927 326.544 64.0247 327.048 64.2647 327.576C64.5047 328.104 64.6247 328.752 64.6247 329.52C64.6247 330.576 64.3367 331.464 63.7607 332.184C63.1847 332.904 62.4887 333.264 61.6727 333.264C60.7127 333.264 59.7287 332.928 58.7207 332.256C56.6567 330.72 54.7367 329.664 52.9607 329.088C51.1847 328.464 49.2167 328.152 47.0567 328.152C42.0647 328.152 38.2727 329.712 35.6807 332.832C33.1367 335.952 31.8647 340.536 31.8647 346.584C31.8647 352.68 33.1367 357.288 35.6807 360.408C38.2727 363.528 42.0647 365.088 47.0567 365.088C49.1207 365.088 51.0167 364.776 52.7447 364.152C54.5207 363.528 56.5127 362.472 58.7207 360.984C59.2007 360.696 59.6807 360.456 60.1607 360.264C60.6407 360.072 61.1447 359.976 61.6727 359.976C62.4887 359.976 63.1847 360.336 63.7607 361.056C64.3367 361.776 64.6247 362.664 64.6247 363.72C64.6247 364.44 64.5047 365.088 64.2647 365.664C64.0247 366.192 63.5927 366.696 62.9687 367.176C60.8087 368.952 58.3367 370.32 55.5527 371.28C52.7687 372.192 49.7927 372.648 46.6247 372.648ZM113.35 366.168C113.926 367.032 114.214 367.872 114.214 368.688C114.214 369.792 113.758 370.704 112.846 371.424C111.982 372.144 110.95 372.504 109.75 372.504C108.982 372.504 108.238 372.336 107.518 372C106.846 371.616 106.27 371.064 105.79 370.344L96.2135 355.8C95.2535 354.264 94.2215 353.184 93.1175 352.56C92.0615 351.936 90.6695 351.624 88.9415 351.624H81.8855V367.752C81.8855 369.192 81.4775 370.344 80.6615 371.208C79.8455 372.024 78.7415 372.432 77.3495 372.432C75.9575 372.432 74.8295 372.024 73.9655 371.208C73.1495 370.344 72.7415 369.192 72.7415 367.752V325.632C72.7415 324.24 73.1255 323.16 73.8935 322.392C74.7095 321.624 75.8135 321.24 77.2055 321.24H95.2055C100.966 321.24 105.334 322.536 108.31 325.128C111.334 327.672 112.846 331.368 112.846 336.216C112.846 340.152 111.718 343.392 109.462 345.936C107.254 348.432 104.11 350.04 100.03 350.76C101.422 351.096 102.646 351.696 103.702 352.56C104.758 353.424 105.79 354.624 106.798 356.16L113.35 366.168ZM93.9095 344.496C97.4135 344.496 99.9815 343.848 101.614 342.552C103.246 341.208 104.062 339.168 104.062 336.432C104.062 333.648 103.246 331.632 101.614 330.384C99.9815 329.088 97.4135 328.44 93.9095 328.44H81.8135V344.496H93.9095ZM145.06 372.648C140.116 372.648 135.82 371.592 132.172 369.48C128.572 367.368 125.788 364.344 123.82 360.408C121.852 356.472 120.868 351.864 120.868 346.584C120.868 341.304 121.828 336.72 123.748 332.832C125.716 328.896 128.524 325.872 132.172 323.76C135.82 321.648 140.116 320.592 145.06 320.592C150.004 320.592 154.276 321.648 157.876 323.76C161.524 325.872 164.308 328.896 166.228 332.832C168.196 336.72 169.18 341.304 169.18 346.584C169.18 351.864 168.196 356.472 166.228 360.408C164.26 364.344 161.452 367.368 157.804 369.48C154.204 371.592 149.956 372.648 145.06 372.648ZM145.06 365.232C149.716 365.232 153.34 363.624 155.932 360.408C158.572 357.192 159.892 352.584 159.892 346.584C159.892 340.584 158.572 336 155.932 332.832C153.34 329.616 149.716 328.008 145.06 328.008C140.356 328.008 136.684 329.616 134.044 332.832C131.452 336 130.156 340.584 130.156 346.584C130.156 352.584 131.452 357.192 134.044 360.408C136.684 363.624 140.356 365.232 145.06 365.232ZM196.13 372.648C192.434 372.648 188.93 372.168 185.618 371.208C182.354 370.2 179.69 368.856 177.626 367.176C176.522 366.36 175.97 365.208 175.97 363.72C175.97 362.712 176.258 361.848 176.834 361.128C177.458 360.36 178.178 359.976 178.994 359.976C179.858 359.976 180.842 360.312 181.946 360.984C184.01 362.472 186.17 363.552 188.426 364.224C190.682 364.896 193.178 365.232 195.914 365.232C199.418 365.232 202.106 364.632 203.978 363.432C205.85 362.184 206.786 360.384 206.786 358.032C206.786 356.208 205.898 354.816 204.122 353.856C202.394 352.848 199.49 351.888 195.41 350.976C191.186 350.064 187.754 349.008 185.114 347.808C182.474 346.608 180.482 345.072 179.138 343.2C177.794 341.328 177.122 338.952 177.122 336.072C177.122 333.096 177.962 330.432 179.642 328.08C181.322 325.728 183.65 323.904 186.626 322.608C189.65 321.264 193.034 320.592 196.778 320.592C203.642 320.592 209.234 322.416 213.554 326.064C214.178 326.592 214.61 327.12 214.85 327.648C215.138 328.128 215.282 328.752 215.282 329.52C215.282 330.528 214.97 331.416 214.346 332.184C213.77 332.904 213.074 333.264 212.258 333.264C211.778 333.264 211.322 333.192 210.89 333.048C210.506 332.904 209.978 332.64 209.306 332.256C207.338 330.816 205.418 329.76 203.546 329.088C201.722 328.368 199.466 328.008 196.778 328.008C193.514 328.008 190.922 328.68 189.002 330.024C187.13 331.32 186.194 333.144 186.194 335.496C186.194 337.464 187.034 338.976 188.714 340.032C190.394 341.088 193.25 342.072 197.282 342.984C201.554 343.944 205.01 345.024 207.65 346.224C210.338 347.376 212.378 348.864 213.77 350.688C215.21 352.512 215.93 354.792 215.93 357.528C215.93 360.504 215.09 363.144 213.41 365.448C211.778 367.704 209.45 369.48 206.426 370.776C203.45 372.024 200.018 372.648 196.13 372.648ZM242.044 372.648C238.348 372.648 234.844 372.168 231.532 371.208C228.268 370.2 225.604 368.856 223.54 367.176C222.436 366.36 221.884 365.208 221.884 363.72C221.884 362.712 222.172 361.848 222.748 361.128C223.372 360.36 224.092 359.976 224.908 359.976C225.772 359.976 226.756 360.312 227.86 360.984C229.924 362.472 232.084 363.552 234.34 364.224C236.596 364.896 239.092 365.232 241.828 365.232C245.332 365.232 248.02 364.632 249.892 363.432C251.764 362.184 252.7 360.384 252.7 358.032C252.7 356.208 251.812 354.816 250.036 353.856C248.308 352.848 245.404 351.888 241.324 350.976C237.1 350.064 233.668 349.008 231.028 347.808C228.388 346.608 226.396 345.072 225.052 343.2C223.708 341.328 223.036 338.952 223.036 336.072C223.036 333.096 223.876 330.432 225.556 328.08C227.236 325.728 229.564 323.904 232.54 322.608C235.564 321.264 238.948 320.592 242.692 320.592C249.556 320.592 255.148 322.416 259.468 326.064C260.092 326.592 260.524 327.12 260.764 327.648C261.052 328.128 261.196 328.752 261.196 329.52C261.196 330.528 260.884 331.416 260.26 332.184C259.684 332.904 258.988 333.264 258.172 333.264C257.692 333.264 257.236 333.192 256.804 333.048C256.42 332.904 255.892 332.64 255.22 332.256C253.252 330.816 251.332 329.76 249.46 329.088C247.636 328.368 245.38 328.008 242.692 328.008C239.428 328.008 236.836 328.68 234.916 330.024C233.044 331.32 232.108 333.144 232.108 335.496C232.108 337.464 232.948 338.976 234.628 340.032C236.308 341.088 239.164 342.072 243.196 342.984C247.468 343.944 250.924 345.024 253.564 346.224C256.252 347.376 258.292 348.864 259.684 350.688C261.124 352.512 261.844 354.792 261.844 357.528C261.844 360.504 261.004 363.144 259.324 365.448C257.692 367.704 255.364 369.48 252.34 370.776C249.364 372.024 245.932 372.648 242.044 372.648ZM274.854 372C273.462 372 272.358 371.616 271.542 370.848C270.774 370.08 270.39 369 270.39 367.608V325.632C270.39 324.24 270.774 323.16 271.542 322.392C272.358 321.624 273.462 321.24 274.854 321.24H300.846C302.238 321.24 303.318 321.552 304.086 322.176C304.854 322.8 305.238 323.688 305.238 324.84C305.238 326.04 304.854 326.976 304.086 327.648C303.318 328.272 302.238 328.584 300.846 328.584H279.462V342.552H299.406C300.798 342.552 301.878 342.864 302.646 343.488C303.414 344.112 303.798 345.024 303.798 346.224C303.798 347.376 303.414 348.264 302.646 348.888C301.878 349.512 300.798 349.824 299.406 349.824H279.462V364.656H300.846C302.238 364.656 303.318 364.992 304.086 365.664C304.854 366.288 305.238 367.2 305.238 368.4C305.238 369.552 304.854 370.44 304.086 371.064C303.318 371.688 302.238 372 300.846 372H274.854ZM329.653 372.648C325.957 372.648 322.453 372.168 319.141 371.208C315.877 370.2 313.213 368.856 311.149 367.176C310.045 366.36 309.493 365.208 309.493 363.72C309.493 362.712 309.781 361.848 310.357 361.128C310.981 360.36 311.701 359.976 312.517 359.976C313.381 359.976 314.365 360.312 315.469 360.984C317.533 362.472 319.693 363.552 321.949 364.224C324.205 364.896 326.701 365.232 329.437 365.232C332.941 365.232 335.629 364.632 337.501 363.432C339.373 362.184 340.309 360.384 340.309 358.032C340.309 356.208 339.421 354.816 337.645 353.856C335.917 352.848 333.013 351.888 328.933 350.976C324.709 350.064 321.277 349.008 318.637 347.808C315.997 346.608 314.005 345.072 312.661 343.2C311.317 341.328 310.645 338.952 310.645 336.072C310.645 333.096 311.485 330.432 313.165 328.08C314.845 325.728 317.173 323.904 320.149 322.608C323.173 321.264 326.557 320.592 330.301 320.592C337.165 320.592 342.757 322.416 347.077 326.064C347.701 326.592 348.133 327.12 348.373 327.648C348.661 328.128 348.805 328.752 348.805 329.52C348.805 330.528 348.493 331.416 347.869 332.184C347.293 332.904 346.597 333.264 345.781 333.264C345.301 333.264 344.845 333.192 344.413 333.048C344.029 332.904 343.501 332.64 342.829 332.256C340.861 330.816 338.941 329.76 337.069 329.088C335.245 328.368 332.989 328.008 330.301 328.008C327.037 328.008 324.445 328.68 322.525 330.024C320.653 331.32 319.717 333.144 319.717 335.496C319.717 337.464 320.557 338.976 322.237 340.032C323.917 341.088 326.773 342.072 330.805 342.984C335.077 343.944 338.533 345.024 341.173 346.224C343.861 347.376 345.901 348.864 347.293 350.688C348.733 352.512 349.453 354.792 349.453 357.528C349.453 360.504 348.613 363.144 346.933 365.448C345.301 367.704 342.973 369.48 339.949 370.776C336.973 372.024 333.541 372.648 329.653 372.648Z" fill="url(#paint7_linear)"/>
<defs>
<linearGradient id="paint0_linear" x1="84.5026" y1="23.3382" x2="84.5026" y2="155.824" gradientUnits="userSpaceOnUse">
<stop stop-color="#55DDB4"/>
<stop offset="1" stop-color="#5BE5EE"/>
</linearGradient>
<linearGradient id="paint1_linear" x1="107.841" y1="117.02" x2="107.841" y2="249.505" gradientUnits="userSpaceOnUse">
<stop stop-color="#53BCD3"/>
<stop offset="1" stop-color="#5BEE9F"/>
</linearGradient>
<linearGradient id="paint2_linear" x1="201.648" y1="141.193" x2="201.648" y2="273.679" gradientUnits="userSpaceOnUse">
<stop stop-color="#55DDB4"/>
<stop offset="1" stop-color="#5BE5EE"/>
</linearGradient>
<linearGradient id="paint3_linear" x1="224.986" y1="234.875" x2="224.986" y2="367.36" gradientUnits="userSpaceOnUse">
<stop stop-color="#53BCD3"/>
<stop offset="1" stop-color="#5BEE9F"/>
</linearGradient>
<linearGradient id="paint4_linear" x1="277.878" y1="9.83334" x2="207.775" y2="104.757" gradientUnits="userSpaceOnUse">
<stop stop-color="#FFCC81"/>
<stop offset="1" stop-color="#FA8FFC"/>
</linearGradient>
<linearGradient id="paint5_linear" x1="160.878" y1="127.75" x2="91.545" y2="222.433" gradientUnits="userSpaceOnUse">
<stop stop-color="#FFCC81"/>
<stop offset="1" stop-color="#FA8FFC"/>
</linearGradient>
<linearGradient id="paint6_linear" x1="185.5" y1="235" x2="185.5" y2="336" gradientUnits="userSpaceOnUse">
<stop stop-color="#53BCD3"/>
<stop offset="1" stop-color="#5BEE9F"/>
</linearGradient>
<linearGradient id="paint7_linear" x1="283.518" y1="307.167" x2="258.565" y2="423.654" gradientUnits="userSpaceOnUse">
<stop stop-color="#FFCC81"/>
<stop offset="1" stop-color="#FA8FFC"/>
</linearGradient>
</defs>
</svg>
