<svg width="371" height="374" viewBox="0 0 371 374" fill="none" xmlns="http://www.w3.org/2000/svg">
<rect x="68" y="23.3382" width="33.0051" height="132.485" rx="16.5026" transform="rotate(-45 68 23.3382)" fill="url(#paint0_linear)"/>
<rect x="91.3382" y="117.02" width="33.0051" height="132.485" rx="16.5026" transform="rotate(-135 91.3382 117.02)" fill="url(#paint1_linear)"/>
<rect x="185.145" y="141.193" width="33.0051" height="132.485" rx="16.5026" transform="rotate(-45 185.145 141.193)" fill="url(#paint2_linear)"/>
<rect x="208.483" y="234.875" width="33.0051" height="132.485" rx="16.5026" transform="rotate(-135 208.483 234.875)" fill="url(#paint3_linear)"/>
<path fill-rule="evenodd" clip-rule="evenodd" d="M243.645 118C275.954 118 302.145 91.5848 302.145 59C302.145 26.4152 275.954 7.62939e-06 243.645 7.62939e-06C211.336 7.62939e-06 185.145 26.4152 185.145 59C185.145 91.5848 211.336 118 243.645 118ZM243.645 86.9704C258.962 86.9704 271.378 74.4476 271.378 59C271.378 43.5524 258.962 31.0296 243.645 31.0296C228.328 31.0296 215.912 43.5524 215.912 59C215.912 74.4476 228.328 86.9704 243.645 86.9704Z" fill="url(#paint4_linear)"/>
<path fill-rule="evenodd" clip-rule="evenodd" d="M126.645 235C158.954 235 185.145 208.809 185.145 176.5C185.145 144.191 158.954 118 126.645 118C94.3364 118 68.145 144.191 68.145 176.5C68.145 208.809 94.3364 235 126.645 235ZM126.645 204.233C141.962 204.233 154.378 191.817 154.378 176.5C154.378 161.183 141.962 148.767 126.645 148.767C111.328 148.767 98.9117 161.183 98.9117 176.5C98.9117 191.817 111.328 204.233 126.645 204.233Z" fill="url(#paint5_linear)"/>
<path d="M86.4058 302.456C86.6938 303.08 86.8378 303.704 86.8378 304.328C86.8378 305.432 86.3818 306.368 85.4698 307.136C84.6058 307.904 83.5978 308.288 82.4458 308.288C81.6778 308.288 80.9578 308.096 80.2858 307.712C79.6138 307.28 79.0858 306.632 78.7018 305.768L74.3818 296.12H49.0378L44.7178 305.768C44.3338 306.632 43.8058 307.28 43.1338 307.712C42.4618 308.096 41.7178 308.288 40.9018 308.288C39.7978 308.288 38.7898 307.904 37.8778 307.136C36.9658 306.368 36.5098 305.432 36.5098 304.328C36.5098 303.704 36.6538 303.08 36.9418 302.456L56.8138 259.76C57.2458 258.8 57.8938 258.08 58.7578 257.6C59.6698 257.072 60.6298 256.808 61.6378 256.808C62.6458 256.808 63.5818 257.072 64.4458 257.6C65.3578 258.08 66.0298 258.8 66.4618 259.76L86.4058 302.456ZM71.2138 288.92L61.7098 267.536L52.2058 288.92H71.2138ZM134.443 302.168C135.019 303.032 135.307 303.872 135.307 304.688C135.307 305.792 134.851 306.704 133.939 307.424C133.075 308.144 132.043 308.504 130.843 308.504C130.075 308.504 129.331 308.336 128.611 308C127.939 307.616 127.363 307.064 126.883 306.344L117.307 291.8C116.347 290.264 115.315 289.184 114.211 288.56C113.155 287.936 111.763 287.624 110.035 287.624H102.979V303.752C102.979 305.192 102.571 306.344 101.755 307.208C100.939 308.024 99.8353 308.432 98.4433 308.432C97.0513 308.432 95.9233 308.024 95.0593 307.208C94.2433 306.344 93.8353 305.192 93.8353 303.752V261.632C93.8353 260.24 94.2193 259.16 94.9873 258.392C95.8033 257.624 96.9073 257.24 98.2993 257.24H116.299C122.059 257.24 126.427 258.536 129.403 261.128C132.427 263.672 133.939 267.368 133.939 272.216C133.939 276.152 132.811 279.392 130.555 281.936C128.347 284.432 125.203 286.04 121.123 286.76C122.515 287.096 123.739 287.696 124.795 288.56C125.851 289.424 126.883 290.624 127.891 292.16L134.443 302.168ZM115.003 280.496C118.507 280.496 121.075 279.848 122.707 278.552C124.339 277.208 125.155 275.168 125.155 272.432C125.155 269.648 124.339 267.632 122.707 266.384C121.075 265.088 118.507 264.44 115.003 264.44H102.907V280.496H115.003ZM166.226 308.648C161.33 308.648 157.034 307.592 153.338 305.48C149.69 303.368 146.882 300.344 144.914 296.408C142.946 292.472 141.962 287.864 141.962 282.584C141.962 277.304 142.946 272.72 144.914 268.832C146.882 264.896 149.69 261.872 153.338 259.76C157.034 257.648 161.33 256.592 166.226 256.592C169.394 256.592 172.37 257.072 175.154 258.032C177.938 258.944 180.41 260.288 182.57 262.064C183.194 262.544 183.626 263.048 183.866 263.576C184.106 264.104 184.226 264.752 184.226 265.52C184.226 266.576 183.938 267.464 183.362 268.184C182.786 268.904 182.09 269.264 181.274 269.264C180.314 269.264 179.33 268.928 178.322 268.256C176.258 266.72 174.338 265.664 172.562 265.088C170.786 264.464 168.818 264.152 166.658 264.152C161.666 264.152 157.874 265.712 155.282 268.832C152.738 271.952 151.466 276.536 151.466 282.584C151.466 288.68 152.738 293.288 155.282 296.408C157.874 299.528 161.666 301.088 166.658 301.088C168.722 301.088 170.618 300.776 172.346 300.152C174.122 299.528 176.114 298.472 178.322 296.984C178.802 296.696 179.282 296.456 179.762 296.264C180.242 296.072 180.746 295.976 181.274 295.976C182.09 295.976 182.786 296.336 183.362 297.056C183.938 297.776 184.226 298.664 184.226 299.72C184.226 300.44 184.106 301.088 183.866 301.664C183.626 302.192 183.194 302.696 182.57 303.176C180.41 304.952 177.938 306.32 175.154 307.28C172.37 308.192 169.394 308.648 166.226 308.648ZM237.437 302.456C237.725 303.08 237.869 303.704 237.869 304.328C237.869 305.432 237.413 306.368 236.501 307.136C235.637 307.904 234.629 308.288 233.477 308.288C232.709 308.288 231.989 308.096 231.317 307.712C230.645 307.28 230.117 306.632 229.733 305.768L225.413 296.12H200.069L195.749 305.768C195.365 306.632 194.837 307.28 194.165 307.712C193.493 308.096 192.749 308.288 191.933 308.288C190.829 308.288 189.821 307.904 188.909 307.136C187.997 306.368 187.541 305.432 187.541 304.328C187.541 303.704 187.685 303.08 187.973 302.456L207.845 259.76C208.277 258.8 208.925 258.08 209.789 257.6C210.701 257.072 211.661 256.808 212.669 256.808C213.677 256.808 214.613 257.072 215.477 257.6C216.389 258.08 217.061 258.8 217.493 259.76L237.437 302.456ZM222.245 288.92L212.741 267.536L203.237 288.92H222.245ZM249.331 308C247.939 308 246.835 307.616 246.019 306.848C245.251 306.08 244.867 305 244.867 303.608V261.632C244.867 260.24 245.251 259.16 246.019 258.392C246.835 257.624 247.939 257.24 249.331 257.24H263.587C271.891 257.24 278.323 259.472 282.883 263.936C287.491 268.352 289.795 274.568 289.795 282.584C289.795 290.648 287.491 296.912 282.883 301.376C278.323 305.792 271.891 308 263.587 308H249.331ZM263.011 300.44C274.675 300.44 280.507 294.488 280.507 282.584C280.507 270.728 274.675 264.8 263.011 264.8H254.155V300.44H263.011ZM303.612 308C302.22 308 301.116 307.616 300.3 306.848C299.532 306.08 299.148 305 299.148 303.608V261.632C299.148 260.24 299.532 259.16 300.3 258.392C301.116 257.624 302.22 257.24 303.612 257.24H329.604C330.996 257.24 332.076 257.552 332.844 258.176C333.612 258.8 333.996 259.688 333.996 260.84C333.996 262.04 333.612 262.976 332.844 263.648C332.076 264.272 330.996 264.584 329.604 264.584H308.22V278.552H328.164C329.556 278.552 330.636 278.864 331.404 279.488C332.172 280.112 332.556 281.024 332.556 282.224C332.556 283.376 332.172 284.264 331.404 284.888C330.636 285.512 329.556 285.824 328.164 285.824H308.22V300.656H329.604C330.996 300.656 332.076 300.992 332.844 301.664C333.612 302.288 333.996 303.2 333.996 304.4C333.996 305.552 333.612 306.44 332.844 307.064C332.076 307.688 330.996 308 329.604 308H303.612Z" fill="url(#paint6_linear)"/>
<path d="M90.5683 372.432C89.1763 372.432 88.0483 372.024 87.1843 371.208C86.3683 370.344 85.9603 369.192 85.9603 367.752V325.632C85.9603 324.24 86.3443 323.16 87.1123 322.392C87.9283 321.624 89.0323 321.24 90.4243 321.24H108.136C113.56 321.24 117.784 322.608 120.808 325.344C123.832 328.032 125.344 331.824 125.344 336.72C125.344 341.616 123.832 345.432 120.808 348.168C117.784 350.904 113.56 352.272 108.136 352.272H95.2483V367.752C95.2483 369.192 94.8163 370.344 93.9523 371.208C93.1363 372.024 92.0083 372.432 90.5683 372.432ZM106.984 345.144C113.368 345.144 116.56 342.36 116.56 336.792C116.56 331.224 113.368 328.44 106.984 328.44H95.2483V345.144H106.984ZM155.889 372.648C150.945 372.648 146.649 371.592 143.001 369.48C139.401 367.368 136.617 364.344 134.649 360.408C132.681 356.472 131.697 351.864 131.697 346.584C131.697 341.304 132.657 336.72 134.577 332.832C136.545 328.896 139.353 325.872 143.001 323.76C146.649 321.648 150.945 320.592 155.889 320.592C160.833 320.592 165.105 321.648 168.705 323.76C172.353 325.872 175.137 328.896 177.057 332.832C179.025 336.72 180.009 341.304 180.009 346.584C180.009 351.864 179.025 356.472 177.057 360.408C175.089 364.344 172.281 367.368 168.633 369.48C165.033 371.592 160.785 372.648 155.889 372.648ZM155.889 365.232C160.545 365.232 164.169 363.624 166.761 360.408C169.401 357.192 170.721 352.584 170.721 346.584C170.721 340.584 169.401 336 166.761 332.832C164.169 329.616 160.545 328.008 155.889 328.008C151.185 328.008 147.513 329.616 144.873 332.832C142.281 336 140.985 340.584 140.985 346.584C140.985 352.584 142.281 357.192 144.873 360.408C147.513 363.624 151.185 365.232 155.889 365.232ZM227.838 320.88C229.182 320.88 230.238 321.312 231.006 322.176C231.822 322.992 232.23 324.096 232.23 325.488V367.752C232.23 369.144 231.822 370.272 231.006 371.136C230.19 372 229.134 372.432 227.838 372.432C226.302 372.432 225.126 371.88 224.31 370.776L198.03 336.576V367.752C198.03 369.144 197.646 370.272 196.878 371.136C196.11 372 195.054 372.432 193.71 372.432C192.366 372.432 191.31 372 190.542 371.136C189.774 370.272 189.39 369.144 189.39 367.752V325.488C189.39 324.096 189.798 322.992 190.614 322.176C191.43 321.312 192.51 320.88 193.854 320.88C195.342 320.88 196.494 321.432 197.31 322.536L223.518 356.592V325.488C223.518 324.096 223.902 322.992 224.67 322.176C225.486 321.312 226.542 320.88 227.838 320.88ZM281.843 344.568C282.947 344.568 283.835 344.904 284.507 345.576C285.179 346.2 285.515 347.04 285.515 348.096V363.576C285.515 365.784 285.227 367.344 284.651 368.256C284.075 369.168 282.899 369.912 281.123 370.488C279.203 371.16 276.971 371.688 274.427 372.072C271.883 372.456 269.435 372.648 267.083 372.648C261.851 372.648 257.315 371.616 253.475 369.552C249.635 367.488 246.683 364.512 244.619 360.624C242.603 356.688 241.595 352.008 241.595 346.584C241.595 341.256 242.603 336.648 244.619 332.76C246.683 328.824 249.587 325.824 253.331 323.76C257.075 321.648 261.491 320.592 266.579 320.592C273.347 320.592 278.891 322.416 283.211 326.064C283.787 326.592 284.195 327.12 284.435 327.648C284.723 328.176 284.867 328.8 284.867 329.52C284.867 330.576 284.579 331.464 284.003 332.184C283.427 332.904 282.731 333.264 281.915 333.264C281.387 333.264 280.907 333.192 280.475 333.048C280.043 332.856 279.539 332.568 278.963 332.184C276.851 330.696 274.883 329.664 273.059 329.088C271.235 328.464 269.171 328.152 266.867 328.152C261.635 328.152 257.675 329.712 254.987 332.832C252.347 335.904 251.027 340.488 251.027 346.584C251.027 359.064 256.499 365.304 267.443 365.304C270.707 365.304 273.971 364.848 277.235 363.936V351.192H269.099C267.947 351.192 267.035 350.904 266.363 350.328C265.739 349.752 265.427 348.936 265.427 347.88C265.427 346.824 265.739 346.008 266.363 345.432C267.035 344.856 267.947 344.568 269.099 344.568H281.843Z" fill="url(#paint7_linear)"/>
<defs>
<linearGradient id="paint0_linear" x1="84.5026" y1="23.3382" x2="84.5026" y2="155.824" gradientUnits="userSpaceOnUse">
<stop stop-color="#55DDB4"/>
<stop offset="1" stop-color="#5BE5EE"/>
</linearGradient>
<linearGradient id="paint1_linear" x1="107.841" y1="117.02" x2="107.841" y2="249.505" gradientUnits="userSpaceOnUse">
<stop stop-color="#53BCD3"/>
<stop offset="1" stop-color="#5BEE9F"/>
</linearGradient>
<linearGradient id="paint2_linear" x1="201.648" y1="141.193" x2="201.648" y2="273.679" gradientUnits="userSpaceOnUse">
<stop stop-color="#55DDB4"/>
<stop offset="1" stop-color="#5BE5EE"/>
</linearGradient>
<linearGradient id="paint3_linear" x1="224.986" y1="234.875" x2="224.986" y2="367.36" gradientUnits="userSpaceOnUse">
<stop stop-color="#53BCD3"/>
<stop offset="1" stop-color="#5BEE9F"/>
</linearGradient>
<linearGradient id="paint4_linear" x1="277.878" y1="9.83334" x2="207.775" y2="104.757" gradientUnits="userSpaceOnUse">
<stop stop-color="#FFCC81"/>
<stop offset="1" stop-color="#FA8FFC"/>
</linearGradient>
<linearGradient id="paint5_linear" x1="160.878" y1="127.75" x2="91.545" y2="222.433" gradientUnits="userSpaceOnUse">
<stop stop-color="#FFCC81"/>
<stop offset="1" stop-color="#FA8FFC"/>
</linearGradient>
<linearGradient id="paint6_linear" x1="185.5" y1="235" x2="185.5" y2="336" gradientUnits="userSpaceOnUse">
<stop stop-color="#53BCD3"/>
<stop offset="1" stop-color="#5BEE9F"/>
</linearGradient>
<linearGradient id="paint7_linear" x1="290.541" y1="305.25" x2="276.603" y2="396.357" gradientUnits="userSpaceOnUse">
<stop stop-color="#FFCC81"/>
<stop offset="1" stop-color="#FA8FFC"/>
</linearGradient>
</defs>
</svg>
